<svg width="168" height="45" viewBox="0 0 168 45" fill="none" xmlns="http://www.w3.org/2000/svg">
<path d="M134.981 41.4072C134.79 42.1595 134.402 42.745 133.816 43.1638C133.23 43.5826 132.545 43.792 131.761 43.792H128.185L130.282 35.5094H133.714C134.538 35.5094 135.129 35.7188 135.487 36.1376C135.853 36.5563 135.946 37.1225 135.765 37.836C135.659 38.2547 135.456 38.6154 135.155 38.9178C134.865 39.2125 134.571 39.4219 134.276 39.546C134.97 39.9027 135.205 40.5231 134.981 41.4072ZM132.86 42.0587C133.101 41.8648 133.259 41.6205 133.333 41.3258C133.408 41.0311 133.373 40.7907 133.228 40.6046C133.085 40.4107 132.834 40.3138 132.474 40.3138H130.734L130.218 42.3495H131.958C132.318 42.3495 132.619 42.2526 132.86 42.0587ZM133.615 38.6037C133.852 38.4254 134.007 38.1927 134.079 37.9058C134.152 37.6188 134.114 37.39 133.965 37.2194C133.818 37.041 133.569 36.9519 133.217 36.9519H131.585L131.102 38.8596H132.734C133.086 38.8596 133.379 38.7743 133.615 38.6037ZM143.211 43.792H137.583L139.681 35.5094H145.309L144.943 36.9519H140.983L140.491 38.8945H143.863L143.498 40.337H140.126L139.617 42.3495H143.577L143.211 43.792ZM153.577 36.9519H151.345L149.613 43.792H147.945L149.677 36.9519H147.445L147.81 35.5094H153.942L153.577 36.9519ZM160.461 43.792H158.721L158.588 42.3262H155.552L154.665 43.792H152.925L158.13 35.5094H159.438L160.461 43.792ZM158.488 40.9652L158.207 37.9523L156.364 40.9652H158.488Z" fill="#E1FC68"/>
<path d="M15.4394 1.23663C15.2957 1.05755 15.0216 1.05315 14.8723 1.22759C8.26562 8.94646 0 12.2969 0 19.68C0 23.7481 3.71721 26.7879 6.65198 26.7879C7.27019 26.7984 7.88743 26.7569 8.49528 26.6643C8.81314 26.6159 8.88657 26.1987 8.63143 26.003C4.37994 22.743 5.06287 16.5935 10.3607 13.4602C8.24315 15.508 7.25415 18.3587 7.99814 20.6768C8.31486 21.6488 8.98503 22.5037 9.90697 23.1121C10.5182 23.5154 11.4761 23.7958 12.3888 23.9386C13.1041 24.0506 13.7011 24.6374 13.6095 25.3556C13.3323 27.5269 12.3513 29.9028 10.3164 30.4484C9.96625 30.5423 9.68224 30.8351 9.68224 31.1977H15.1108H20.5393C20.5393 30.835 20.2551 30.5424 19.9058 30.4446C17.7842 29.8501 16.8882 27.1529 16.7107 24.8967C16.6741 24.4322 17.0618 24.0595 17.5258 24.0174C18.5621 23.9234 19.7242 23.6277 20.4672 23.1536C21.4237 22.5434 22.1214 21.6721 22.4504 20.6768C23.1945 18.3587 22.2054 15.508 20.0882 13.4603C25.4181 16.5519 26.0425 22.8463 21.7125 26.0875C21.4468 26.2865 21.5297 26.7194 21.8602 26.7501C22.2338 26.7848 22.61 26.7975 22.9863 26.7879C25.8215 26.7879 30.1739 24.6894 30.1739 19.5528C30.1739 12.382 21.6306 8.95153 15.4394 1.23663Z" fill="#E1FC68"/>
<path d="M44.3211 24.9943C39.5248 24.9943 38.0451 22.1048 39.8819 16.3258C40.8188 13.3783 42.1231 11.2148 43.7949 9.83535C45.4667 8.45594 47.4417 7.76624 49.7199 7.76624C54.4991 7.76624 55.9702 10.6557 54.1334 16.4347C52.3197 22.1411 49.0489 24.9943 44.3211 24.9943ZM45.1371 22.1847C46.2505 22.1847 47.2454 21.7491 48.1219 20.8779C48.9983 20.0067 49.7735 18.5111 50.4473 16.3912C51.1211 14.2712 51.2881 12.7757 50.9483 11.9045C50.6086 11.0333 49.882 10.5977 48.7686 10.5977C47.6551 10.5977 46.6773 11.0333 45.8351 11.9045C44.9976 12.7612 44.2419 14.2495 43.5681 16.3694C42.8896 18.5039 42.7032 20.0067 43.0087 20.8779C43.3142 21.7491 44.0236 22.1847 45.1371 22.1847Z" fill="white"/>
<path d="M56.691 24.6894H52.2972L61.4612 16.3912L57.5792 8.07116H61.9987L64.6576 14.2567L71.2744 8.07116H75.6938L66.523 16.3912L70.4118 24.6894H66.018L63.2573 18.7434L56.691 24.6894Z" fill="white"/>
<path d="M79.4547 24.9943C77.3477 24.9943 75.6994 24.6023 74.5098 23.8182C73.3372 23.0341 72.6075 21.9887 72.3205 20.6819C72.0336 19.3751 72.1393 17.9376 72.6377 16.3694C73.1362 14.8012 73.9419 13.371 75.055 12.0787C76.1727 10.7719 77.567 9.72645 79.238 8.94236C80.9261 8.15828 82.8236 7.76624 84.9305 7.76624C87.3972 7.76624 89.2359 8.25992 90.4466 9.24728C91.6573 10.2347 92.1982 11.5778 92.0694 13.2766H88.0097C87.9611 12.4054 87.5996 11.7375 86.925 11.2728C86.2676 10.8082 85.2965 10.5759 84.0118 10.5759C82.7956 10.5759 81.6785 10.83 80.6605 11.3382C79.6642 11.8319 78.805 12.5143 78.0827 13.3855C77.3775 14.2567 76.8496 15.2441 76.4988 16.3476C75.945 18.09 76.0112 19.4985 76.6975 20.573C77.4009 21.6475 78.7204 22.1847 80.656 22.1847C82.232 22.1847 83.5715 21.8507 84.6745 21.1828C85.7775 20.5149 86.5516 19.5348 86.9966 18.2425H82.6542L83.478 15.6507H91.4947L88.6217 24.6894H85.2558L85.8511 22.8163C84.9727 23.5859 83.9728 24.1449 82.8514 24.4934C81.7517 24.8274 80.6195 24.9943 79.4547 24.9943Z" fill="white"/>
<path d="M93.5894 24.6894H89.7095L101.903 8.07116H105.963L107.593 24.6894H103.713L103.464 21.2699H95.9867L93.5894 24.6894ZM102.846 11.4906L97.9124 18.5256H103.308L102.846 11.4906Z" fill="white"/>
<path d="M112.705 24.6894H109.005L114.287 8.07116H120.402L120.385 20.8997L128.496 8.07116H134.663L129.381 24.6894H125.681L130.215 10.4234L121.004 24.6894H117.381L117.212 10.5105L112.705 24.6894Z" fill="white"/>
<path d="M143.612 24.6894L132.469 24.5216L137.751 7.9033L148.894 8.07116L148.001 11.682H136.55L135.503 14.9755H142.082L141.196 17.7633H134.617C134.106 19.3709 134.074 19.471 133.563 21.0785H144.733L143.612 24.6894Z" fill="white"/>
<path d="M154.451 24.9943C153.081 24.9943 151.831 24.8056 150.7 24.4281C149.57 24.0505 148.702 23.4407 148.096 22.5985C147.511 21.7418 147.357 20.6383 147.632 19.2879H151.46C151.405 20.3769 151.741 21.1538 152.467 21.6184C153.193 22.0831 154.147 22.3154 155.329 22.3154C156.408 22.3154 157.333 22.1266 158.104 21.7491C158.879 21.3571 159.387 20.7835 159.627 20.0285C159.798 19.4912 159.728 19.0629 159.419 18.7434C159.114 18.4095 158.67 18.1626 158.087 18.0029C157.526 17.8287 156.738 17.6399 155.723 17.4366C154.338 17.1607 153.237 16.8776 152.422 16.5872C151.623 16.2968 150.998 15.8394 150.545 15.215C150.093 14.5907 150.04 13.734 150.386 12.645C150.718 11.5995 151.299 10.7138 152.13 9.98781C152.964 9.24729 153.962 8.69552 155.122 8.33252C156.287 7.955 157.538 7.76624 158.874 7.76624C160.176 7.76624 161.321 7.96226 162.31 8.3543C163.303 8.73182 164.05 9.31989 164.55 10.1185C165.054 10.9026 165.227 11.8682 165.068 13.0153H161.291C161.323 12.1586 161.03 11.5197 160.41 11.0986C159.812 10.663 158.99 10.4452 157.945 10.4452C156.986 10.4452 156.16 10.6194 155.467 10.9679C154.778 11.3019 154.337 11.7738 154.143 12.3836C153.991 12.8628 154.065 13.2476 154.367 13.538C154.669 13.8284 155.085 14.0534 155.617 14.2132C156.149 14.3729 156.905 14.5544 157.885 14.7577C159.288 15.0335 160.411 15.3239 161.257 15.6289C162.119 15.9338 162.784 16.4275 163.253 17.1099C163.721 17.7924 163.77 18.7144 163.401 19.876C162.898 21.4587 161.85 22.7074 160.258 23.6222C158.682 24.537 156.747 24.9943 154.451 24.9943Z" fill="white"/>
</svg>
