<svg width="34" height="20" viewBox="0 0 34 20" fill="none" xmlns="http://www.w3.org/2000/svg">
<circle cx="23.5625" cy="10" r="10" fill="#18181B"/>
<g clip-path="url(#clip0_418_189)">
<path d="M23.5625 1.21094C21.2315 1.21094 18.996 2.13693 17.3477 3.78519C15.6994 5.43346 14.7734 7.669 14.7734 10C14.7734 12.331 15.6994 14.5665 17.3477 16.2148C18.996 17.8631 21.2315 18.7891 23.5625 18.7891C25.8935 18.7891 28.129 17.8631 29.7773 16.2148C31.4256 14.5665 32.3516 12.331 32.3516 10C32.3516 7.669 31.4256 5.43346 29.7773 3.78519C28.129 2.13693 25.8935 1.21094 23.5625 1.21094Z" fill="#2B4896"/>
<path d="M29.7548 10.8778L29.4637 10.6662L29.172 10.8771L29.2833 10.5348L28.9926 10.3226L29.3526 10.3227L29.4645 9.98063L29.5756 10.323L29.9356 10.3238L29.6443 10.5353L29.7548 10.8778ZM19.9386 14.7097L19.1688 13.8994L18.3933 14.7049L18.5469 13.5978L17.4336 13.4938L18.3949 12.9236L17.7821 11.9883L18.8272 12.3844L19.1764 11.3222L19.5184 12.3862L20.5665 11.9969L19.9479 12.9277L20.9058 13.5045L19.7923 13.6012L19.9386 14.7097ZM25.67 10.0021L25.3038 9.61669L24.935 9.99985L25.008 9.47324L24.4785 9.4238L24.9357 9.15255L24.6442 8.70768L25.1414 8.89606L25.3075 8.3908L25.4701 8.8969L25.9687 8.71174L25.6744 9.15449L26.1301 9.42886L25.6004 9.47482L25.67 10.0021ZM28.6413 14.7067L28.2752 14.3213L27.9063 14.7044L27.9793 14.1778L27.4498 14.1283L27.907 13.8571L27.6155 13.4122L28.1127 13.6006L28.2787 13.0954L28.4415 13.6015L28.94 13.4163L28.6458 13.8591L29.1014 14.1334L28.5718 14.1794L28.6413 14.7067ZM28.6413 6.7832L28.2752 6.39777L27.9063 6.78093L27.9793 6.25432L27.4498 6.20488L27.907 5.93363L27.6155 5.48876L28.1127 5.67714L28.2787 5.17188L28.4415 5.67798L28.94 5.49282L28.6458 5.93557L29.1014 6.20994L28.5718 6.25593L28.6413 6.7832ZM31.2825 9.20975L30.9163 8.82435L30.5475 9.20752L30.6205 8.68091L30.0909 8.63143L30.5482 8.36022L30.2567 7.91531L30.7538 8.10369L30.9199 7.59843L31.0826 8.10457L31.5812 7.91941L31.2869 8.36216L31.7426 8.63649L31.2129 8.68248L31.2825 9.20975Z" fill="white"/>
<path d="M23.5625 1.21094C21.2315 1.21094 18.996 2.13693 17.3477 3.78519C15.6994 5.43346 14.7734 7.669 14.7734 10H23.5625V1.21094Z" fill="#2B4896"/>
<path d="M23.5625 1.21094C23.3566 1.21401 23.1509 1.22432 22.9457 1.24185L19.1089 5.49758L18.6586 5.10537L18.6521 5.11259L17.46 3.6881C17.2477 3.89331 17.0459 4.10908 16.8553 4.33461L18.0579 5.77177L14.7951 9.39095C14.7808 9.59366 14.7736 9.7968 14.7734 10H15.4224L19.1699 5.79524H19.2993L19.2206 5.86628L22.9478 10H23.5625V9.37001L20.1816 5.61975L23.5625 1.86997V1.21094Z" fill="white"/>
<path d="M18.7909 5.9437L18.4444 5.97769V5.96168L14.7734 9.99993V10H15.1487L18.7909 5.9437ZM23.2238 1.21094L19.1634 5.67871H19.5342V5.69475L23.5625 1.26334V1.21094H23.2238Z" fill="#E74C3C"/>
<path d="M17.1633 3.98145C17.0985 4.05274 17.035 4.12508 16.9727 4.19846L18.6334 6.16706L18.8522 5.98271L17.1633 3.98148V3.98145Z" fill="#E74C3C"/>
<path d="M19.902 2.02051C19.3875 2.25621 18.8969 2.54105 18.4371 2.87107V4.87314H16.4389C16.108 5.33281 15.8224 5.82337 15.5859 6.33799H18.4371V10.0001H19.902V6.33799H23.5641V4.87314H19.902V2.02051Z" fill="white"/>
<path d="M19.6805 5.34672L19.4688 5.53898L23.5239 9.99979H23.5617V9.61736L19.6805 5.34668V5.34672Z" fill="#E74C3C"/>
<path d="M19.6068 2.16211C19.3044 2.31348 19.0109 2.48218 18.7279 2.66737V5.16617H16.2271C16.0395 5.44901 15.8685 5.74247 15.7148 6.04508H18.7279V10.0002H19.6068V6.04508H23.5619V5.16617H19.6068V2.16211Z" fill="#E74C3C"/>
</g>
<circle cx="10.4375" cy="10" r="10" fill="#18181B"/>
<g clip-path="url(#clip1_418_189)">
<path d="M2.16016 12.9297C2.76544 14.6417 3.88612 16.1242 5.36815 17.1734C6.85019 18.2226 8.62082 18.787 10.4367 18.7891C12.2523 18.7868 14.0226 18.2222 15.5044 17.173C16.9862 16.1238 18.1067 14.6415 18.7119 12.9297H2.16016Z" fill="#27AE60"/>
<path d="M2.16228 7.07031C1.8258 8.01059 1.65203 9.00134 1.64844 10C1.65162 10.9986 1.82495 11.9893 2.16099 12.9297H18.7127C19.0492 11.9894 19.223 10.9987 19.2266 10C19.2234 9.00141 19.0501 8.01067 18.714 7.07031H2.16228Z" fill="white"/>
<path d="M10.4354 1.21094C8.61976 1.21325 6.84941 1.77779 5.36763 2.82699C3.88585 3.87618 2.76536 5.35853 2.16016 7.07031H18.7119C18.1066 5.35832 16.9859 3.87583 15.5039 2.82662C14.0219 1.7774 12.2512 1.21298 10.4354 1.21094Z" fill="#F39C12"/>
<path d="M13.002 10C13.002 10.6799 12.7319 11.3319 12.2511 11.8127C11.7704 12.2934 11.1184 12.5635 10.4385 12.5635C9.7586 12.5635 9.10657 12.2934 8.62582 11.8127C8.14508 11.3319 7.875 10.6799 7.875 10C7.875 9.32012 8.14508 8.66809 8.62582 8.18735C9.10657 7.7066 9.7586 7.43652 10.4385 7.43652C11.1184 7.43652 11.7704 7.7066 12.2511 8.18735C12.7319 8.66809 13.002 9.32012 13.002 10Z" fill="#000088"/>
<path d="M12.6814 9.99988C12.6814 10.5948 12.4451 11.1653 12.0244 11.5859C11.6038 12.0066 11.0332 12.2429 10.4384 12.2429C9.84346 12.2429 9.27294 12.0066 8.85228 11.5859C8.43163 11.1653 8.19531 10.5948 8.19531 9.99988C8.19531 9.40499 8.43163 8.83446 8.85228 8.41381C9.27294 7.99316 9.84346 7.75684 10.4384 7.75684C11.0332 7.75684 11.6038 7.99316 12.0244 8.41381C12.4451 8.83446 12.6814 9.40499 12.6814 9.99988Z" fill="white"/>
<path d="M10.8855 10.0004C10.8855 10.1193 10.8382 10.2335 10.7541 10.3176C10.67 10.4017 10.5559 10.449 10.4369 10.449C10.3179 10.449 10.2038 10.4017 10.1197 10.3176C10.0355 10.2335 9.98828 10.1193 9.98828 10.0004C9.98828 9.88139 10.0355 9.76728 10.1197 9.68315C10.2038 9.59902 10.3179 9.55176 10.4369 9.55176C10.5559 9.55176 10.67 9.59902 10.7541 9.68315C10.8382 9.76728 10.8855 9.88139 10.8855 10.0004Z" fill="#000088"/>
<path d="M12.7702 10.3075C12.7683 10.3221 12.7635 10.3361 12.7562 10.3489C12.7488 10.3616 12.739 10.3728 12.7273 10.3818C12.7156 10.3908 12.7023 10.3973 12.6881 10.4011C12.6738 10.405 12.659 10.4059 12.6444 10.404C12.6298 10.4021 12.6157 10.3973 12.603 10.3899C12.5902 10.3826 12.579 10.3728 12.5701 10.3611C12.5611 10.3494 12.5545 10.3361 12.5507 10.3218C12.5469 10.3076 12.5459 10.2928 12.5478 10.2782C12.5498 10.2636 12.5545 10.2495 12.5619 10.2367C12.5693 10.224 12.5791 10.2128 12.5908 10.2038C12.6024 10.1949 12.6158 10.1883 12.63 10.1845C12.6442 10.1807 12.6591 10.1797 12.6737 10.1816C12.6883 10.1835 12.7023 10.1883 12.7151 10.1957C12.7279 10.2031 12.739 10.2129 12.748 10.2245C12.757 10.2362 12.7635 10.2496 12.7674 10.2638C12.7712 10.278 12.7721 10.2929 12.7702 10.3075Z" fill="#000088"/>
<path d="M10.4363 12.2426L10.5132 10.8967L10.4363 10.2559L10.3594 10.8967L10.4363 12.2426Z" fill="#000088"/>
<path d="M12.6142 10.9012C12.6028 10.9286 12.581 10.9505 12.5535 10.9619C12.526 10.9732 12.4952 10.9732 12.4677 10.9619C12.4402 10.9505 12.4184 10.9286 12.407 10.9012C12.3956 10.8737 12.3956 10.8428 12.407 10.8153C12.4184 10.7878 12.4402 10.766 12.4677 10.7546C12.4952 10.7432 12.526 10.7432 12.5535 10.7546C12.581 10.766 12.6028 10.7878 12.6142 10.8153C12.6256 10.8428 12.6256 10.8737 12.6142 10.9012Z" fill="#000088"/>
<path d="M9.85547 12.1661L10.2781 10.886L10.3697 10.2471L10.1295 10.8462L9.85547 12.1661Z" fill="#000088"/>
<path d="M12.3066 11.4334C12.2885 11.457 12.2617 11.4724 12.2323 11.4763C12.2028 11.4802 12.1729 11.4722 12.1493 11.4541C12.1257 11.436 12.1103 11.4092 12.1064 11.3797C12.1025 11.3502 12.1105 11.3204 12.1286 11.2968C12.1468 11.2732 12.1735 11.2578 12.203 11.2539C12.2325 11.25 12.2623 11.258 12.2859 11.2761C12.3095 11.2942 12.3249 11.321 12.3288 11.3504C12.3327 11.3799 12.3247 11.4098 12.3066 11.4334Z" fill="#000088"/>
<path d="M9.31641 11.9422L10.0559 10.8151L10.3098 10.2217L9.92272 10.7382L9.31641 11.9422Z" fill="#000088"/>
<path d="M11.8718 11.8681C11.8482 11.8862 11.8184 11.8942 11.7889 11.8903C11.7594 11.8865 11.7327 11.871 11.7146 11.8474C11.6965 11.8238 11.6885 11.794 11.6924 11.7645C11.6962 11.735 11.7117 11.7083 11.7353 11.6902C11.7589 11.6721 11.7887 11.6641 11.8182 11.668C11.8477 11.6718 11.8744 11.6873 11.8925 11.7109C11.9106 11.7345 11.9186 11.7643 11.9148 11.7938C11.9109 11.8233 11.8954 11.85 11.8718 11.8681Z" fill="#000088"/>
<path d="M8.85547 11.5855L9.86149 10.6882L10.2603 10.1807L9.75273 10.5794L8.85547 11.5855Z" fill="#000088"/>
<path d="M11.3387 12.1757C11.3112 12.1871 11.2803 12.1871 11.2528 12.1757C11.2253 12.1643 11.2035 12.1425 11.1921 12.115C11.1807 12.0876 11.1807 12.0567 11.1921 12.0292C11.2035 12.0017 11.2253 11.9799 11.2528 11.9685C11.2803 11.9571 11.3112 11.9571 11.3387 11.9685C11.3661 11.9799 11.388 12.0017 11.3994 12.0292C11.4107 12.0567 11.4107 12.0876 11.3994 12.115C11.388 12.1425 11.3661 12.1643 11.3387 12.1757Z" fill="#000088"/>
<path d="M8.49609 11.1213L9.70007 10.515L10.2166 10.1279L9.62316 10.3818L8.49609 11.1213Z" fill="#000088"/>
<path d="M10.744 12.3347C10.7294 12.3366 10.7145 12.3356 10.7003 12.3318C10.6861 12.328 10.6728 12.3214 10.6611 12.3125C10.6494 12.3035 10.6396 12.2923 10.6322 12.2796C10.6248 12.2668 10.6201 12.2527 10.6181 12.2381C10.6162 12.2235 10.6172 12.2087 10.621 12.1945C10.6248 12.1802 10.6314 12.1669 10.6404 12.1552C10.6493 12.1435 10.6605 12.1337 10.6733 12.1264C10.686 12.119 10.7001 12.1142 10.7147 12.1123C10.7293 12.1104 10.7441 12.1113 10.7584 12.1151C10.7726 12.119 10.7859 12.1255 10.7976 12.1345C10.8093 12.1435 10.8191 12.1546 10.8265 12.1674C10.8338 12.1802 10.8386 12.1942 10.8405 12.2088C10.8425 12.2234 10.8415 12.2383 10.8377 12.2525C10.8339 12.2667 10.8273 12.2801 10.8183 12.2918C10.8093 12.3034 10.7982 12.3132 10.7854 12.3206C10.7727 12.328 10.7586 12.3328 10.744 12.3347Z" fill="#000088"/>
<path d="M8.27344 10.5806L9.59331 10.3066L10.1924 10.0664L9.5535 10.158L8.27344 10.5806Z" fill="#000088"/>
<path d="M10.1327 12.3347C10.1181 12.3328 10.104 12.328 10.0912 12.3206C10.0785 12.3132 10.0673 12.3034 10.0583 12.2918C10.0494 12.2801 10.0428 12.2667 10.039 12.2525C10.0352 12.2383 10.0342 12.2234 10.0361 12.2088C10.038 12.1942 10.0428 12.1802 10.0502 12.1674C10.0575 12.1546 10.0674 12.1435 10.079 12.1345C10.0907 12.1255 10.1041 12.119 10.1183 12.1151C10.1325 12.1113 10.1473 12.1104 10.1619 12.1123C10.1765 12.1142 10.1906 12.119 10.2034 12.1264C10.2161 12.1337 10.2273 12.1435 10.2363 12.1552C10.2453 12.1669 10.2518 12.1802 10.2556 12.1945C10.2595 12.2087 10.2604 12.2235 10.2585 12.2381C10.2566 12.2527 10.2518 12.2668 10.2444 12.2796C10.2371 12.2923 10.2273 12.3035 10.2156 12.3125C10.2039 12.3214 10.1906 12.328 10.1763 12.3318C10.1621 12.3356 10.1473 12.3366 10.1327 12.3347Z" fill="#000088"/>
<path d="M8.19531 9.99976L9.54114 10.0767L10.182 9.99976L9.54114 9.92285L8.19531 9.99976Z" fill="#000088"/>
<path d="M9.53798 12.1757C9.5105 12.1643 9.48867 12.1425 9.47729 12.115C9.4659 12.0876 9.4659 12.0567 9.47729 12.0292C9.48867 12.0017 9.5105 11.9799 9.53798 11.9685C9.56546 11.9571 9.59634 11.9571 9.62382 11.9685C9.6513 11.9799 9.67313 12.0017 9.68452 12.0292C9.6959 12.0567 9.6959 12.0876 9.68452 12.115C9.67313 12.1425 9.6513 12.1643 9.62382 12.1757C9.59634 12.1871 9.56546 12.1871 9.53798 12.1757Z" fill="#000088"/>
<path d="M8.27344 9.41992L9.5535 9.84253L10.1924 9.93412L9.59331 9.69396L8.27344 9.41992Z" fill="#000088"/>
<path d="M9.00091 11.8681C8.97731 11.85 8.96187 11.8233 8.95799 11.7938C8.95411 11.7643 8.9621 11.7345 8.98021 11.7109C8.99832 11.6873 9.02506 11.6718 9.05455 11.668C9.08404 11.6641 9.11386 11.6721 9.13746 11.6902C9.16106 11.7083 9.17649 11.735 9.18038 11.7645C9.18426 11.794 9.17627 11.8238 9.15816 11.8474C9.14005 11.871 9.11331 11.8865 9.08382 11.8903C9.05433 11.8942 9.02451 11.8862 9.00091 11.8681Z" fill="#000088"/>
<path d="M8.49609 8.87891L9.62316 9.61842L10.2166 9.87225L9.70007 9.48522L8.49609 8.87891Z" fill="#000088"/>
<path d="M8.57005 11.4335C8.55194 11.4099 8.54395 11.3801 8.54783 11.3506C8.55172 11.3211 8.56716 11.2944 8.59075 11.2763C8.61435 11.2582 8.64418 11.2502 8.67367 11.2541C8.70316 11.258 8.7299 11.2734 8.748 11.297C8.76611 11.3206 8.7741 11.3504 8.77022 11.3799C8.76634 11.4094 8.7509 11.4361 8.7273 11.4542C8.7037 11.4723 8.67388 11.4803 8.64439 11.4765C8.6149 11.4726 8.58816 11.4571 8.57005 11.4335Z" fill="#000088"/>
<path d="M8.85547 8.41406L9.75273 9.42008L10.2603 9.81887L9.86149 9.31133L8.85547 8.41406Z" fill="#000088"/>
<path d="M8.26244 10.9012C8.25106 10.8737 8.25106 10.8429 8.26244 10.8154C8.27383 10.7879 8.29566 10.7661 8.32314 10.7547C8.35062 10.7433 8.3815 10.7433 8.40898 10.7547C8.43646 10.7661 8.45829 10.7879 8.46967 10.8154C8.48106 10.8429 8.48106 10.8737 8.46967 10.9012C8.45829 10.9287 8.43646 10.9505 8.40898 10.9619C8.3815 10.9733 8.35062 10.9733 8.32314 10.9619C8.29566 10.9505 8.27383 10.9287 8.26244 10.9012Z" fill="#000088"/>
<path d="M9.31641 8.05762L9.92272 9.26159L10.3098 9.77815L10.0559 9.18468L9.31641 8.05762Z" fill="#000088"/>
<path d="M8.10252 10.3075C8.1006 10.2929 8.10157 10.278 8.10538 10.2638C8.1092 10.2496 8.11577 10.2362 8.12474 10.2245C8.1337 10.2129 8.14488 10.2031 8.15764 10.1957C8.17039 10.1883 8.18447 10.1835 8.19908 10.1816C8.21368 10.1797 8.22852 10.1807 8.24274 10.1845C8.25697 10.1883 8.2703 10.1949 8.28199 10.2038C8.29367 10.2128 8.30348 10.224 8.31084 10.2367C8.31821 10.2495 8.32298 10.2636 8.32491 10.2782C8.32683 10.2928 8.32586 10.3076 8.32205 10.3218C8.31823 10.3361 8.31166 10.3494 8.30269 10.3611C8.29372 10.3728 8.28255 10.3826 8.26979 10.3899C8.25704 10.3973 8.24296 10.4021 8.22835 10.404C8.21375 10.4059 8.19891 10.405 8.18469 10.4011C8.17046 10.3973 8.15713 10.3908 8.14544 10.3818C8.13376 10.3728 8.12395 10.3616 8.11659 10.3489C8.10922 10.3361 8.10444 10.3221 8.10252 10.3075Z" fill="#000088"/>
<path d="M9.85547 7.83398L10.1295 9.15386L10.3697 9.75298L10.2781 9.11405L9.85547 7.83398Z" fill="#000088"/>
<path d="M8.10252 9.69224C8.10444 9.67764 8.10922 9.66356 8.11659 9.6508C8.12395 9.63805 8.13376 9.62687 8.14544 9.6179C8.15713 9.60894 8.17046 9.60236 8.18469 9.59855C8.19891 9.59474 8.21375 9.59376 8.22835 9.59569C8.24296 9.59761 8.25704 9.60239 8.26979 9.60975C8.28255 9.61712 8.29372 9.62692 8.30269 9.63861C8.31166 9.65029 8.31823 9.66363 8.32205 9.67785C8.32586 9.69208 8.32683 9.70692 8.32491 9.72152C8.32298 9.73612 8.31821 9.7502 8.31084 9.76296C8.30348 9.77571 8.29367 9.78689 8.28199 9.79586C8.2703 9.80482 8.25697 9.8114 8.24274 9.81521C8.22852 9.81902 8.21368 9.81999 8.19908 9.81807C8.18447 9.81615 8.17039 9.81137 8.15764 9.80401C8.14488 9.79664 8.1337 9.78684 8.12474 9.77515C8.11577 9.76347 8.1092 9.75013 8.10538 9.73591C8.10157 9.72168 8.1006 9.70684 8.10252 9.69224Z" fill="#000088"/>
<path d="M10.4363 7.75684L10.3594 9.10266L10.4363 9.74353L10.5132 9.10266L10.4363 7.75684Z" fill="#000088"/>
<path d="M8.26244 9.09853C8.27383 9.07105 8.29566 9.04922 8.32314 9.03783C8.35062 9.02645 8.3815 9.02645 8.40898 9.03783C8.43646 9.04922 8.45829 9.07105 8.46967 9.09853C8.48106 9.12601 8.48106 9.15689 8.46967 9.18437C8.45829 9.21185 8.43646 9.23368 8.40898 9.24506C8.3815 9.25645 8.35062 9.25645 8.32314 9.24506C8.29566 9.23368 8.27383 9.21185 8.26244 9.18437C8.25106 9.15689 8.25106 9.12601 8.26244 9.09853Z" fill="#000088"/>
<path d="M11.0142 7.83398L10.5916 9.11405L10.5 9.75298L10.7402 9.15386L11.0142 7.83398Z" fill="#000088"/>
<path d="M8.57005 8.56646C8.58816 8.54286 8.6149 8.52743 8.64439 8.52354C8.67388 8.51966 8.7037 8.52765 8.7273 8.54576C8.7509 8.56387 8.76634 8.59061 8.77022 8.6201C8.7741 8.64959 8.76611 8.67941 8.748 8.70301C8.7299 8.72661 8.70316 8.74205 8.67367 8.74593C8.64418 8.74981 8.61435 8.74182 8.59075 8.72371C8.56716 8.7056 8.55172 8.67886 8.54783 8.64937C8.54395 8.61988 8.55194 8.59006 8.57005 8.56646Z" fill="#000088"/>
<path d="M11.5598 8.05762L10.8202 9.18468L10.5664 9.77815L10.9534 9.26159L11.5598 8.05762Z" fill="#000088"/>
<path d="M9.00091 8.13157C9.02451 8.11347 9.05433 8.10548 9.08382 8.10936C9.11331 8.11324 9.14005 8.12868 9.15816 8.15228C9.17627 8.17588 9.18426 8.2057 9.18038 8.23519C9.17649 8.26468 9.16106 8.29142 9.13746 8.30953C9.11386 8.32763 9.08404 8.33563 9.05455 8.33174C9.02506 8.32786 8.99832 8.31242 8.98021 8.28882C8.9621 8.26523 8.95411 8.2354 8.95799 8.20591C8.96187 8.17642 8.97731 8.14968 9.00091 8.13157Z" fill="#000088"/>
<path d="M12.0259 8.41406L11.0199 9.31133L10.6211 9.81887L11.1286 9.42008L12.0259 8.41406Z" fill="#000088"/>
<path d="M9.53798 7.82397C9.56546 7.81258 9.59634 7.81258 9.62382 7.82397C9.6513 7.83535 9.67313 7.85718 9.68452 7.88466C9.6959 7.91214 9.6959 7.94302 9.68452 7.9705C9.67313 7.99798 9.6513 8.01981 9.62382 8.0312C9.59634 8.04258 9.56546 8.04258 9.53798 8.0312C9.5105 8.01981 9.48867 7.99798 9.47729 7.9705C9.4659 7.94302 9.4659 7.91214 9.47729 7.88466C9.48867 7.85718 9.5105 7.83535 9.53798 7.82397Z" fill="#000088"/>
<path d="M12.3768 8.87891L11.1728 9.48522L10.6562 9.87225L11.2497 9.61842L12.3768 8.87891Z" fill="#000088"/>
<path d="M10.1327 7.66502C10.1473 7.6631 10.1621 7.66407 10.1763 7.66788C10.1906 7.6717 10.2039 7.67827 10.2156 7.68724C10.2273 7.6962 10.2371 7.70738 10.2444 7.72014C10.2518 7.73289 10.2566 7.74697 10.2585 7.76158C10.2604 7.77618 10.2595 7.79102 10.2556 7.80524C10.2518 7.81947 10.2453 7.8328 10.2363 7.84449C10.2273 7.85617 10.2161 7.86598 10.2034 7.87334C10.1906 7.88071 10.1765 7.88548 10.1619 7.88741C10.1473 7.88933 10.1325 7.88836 10.1183 7.88455C10.1041 7.88073 10.0907 7.87416 10.079 7.86519C10.0674 7.85622 10.0575 7.84505 10.0502 7.83229C10.0428 7.81954 10.038 7.80546 10.0361 7.79085C10.0342 7.77625 10.0352 7.76141 10.039 7.74719C10.0428 7.73296 10.0494 7.71963 10.0583 7.70794C10.0673 7.69626 10.0785 7.68645 10.0912 7.67909C10.104 7.67172 10.1181 7.66694 10.1327 7.66502Z" fill="#000088"/>
<path d="M12.6026 9.41992L11.2827 9.69396L10.6836 9.93412L11.3225 9.84253L12.6026 9.41992Z" fill="#000088"/>
<path d="M10.744 7.66502C10.7586 7.66694 10.7727 7.67172 10.7854 7.67909C10.7982 7.68645 10.8093 7.69626 10.8183 7.70794C10.8273 7.71963 10.8339 7.73296 10.8377 7.74719C10.8415 7.76141 10.8425 7.77625 10.8405 7.79085C10.8386 7.80546 10.8338 7.81954 10.8265 7.83229C10.8191 7.84505 10.8093 7.85622 10.7976 7.86519C10.7859 7.87416 10.7726 7.88073 10.7584 7.88455C10.7441 7.88836 10.7293 7.88933 10.7147 7.88741C10.7001 7.88548 10.686 7.88071 10.6733 7.87334C10.6605 7.86598 10.6493 7.85617 10.6404 7.84449C10.6314 7.8328 10.6248 7.81947 10.621 7.80524C10.6172 7.79102 10.6162 7.77618 10.6181 7.76158C10.6201 7.74697 10.6248 7.73289 10.6322 7.72014C10.6396 7.70738 10.6494 7.6962 10.6611 7.68724C10.6728 7.67827 10.6861 7.6717 10.7003 7.66788C10.7145 7.66407 10.7294 7.6631 10.744 7.66502Z" fill="#000088"/>
<path d="M12.682 9.99976L11.3362 9.92285L10.6953 9.99976L11.3362 10.0767L12.682 9.99976Z" fill="#000088"/>
<path d="M11.3387 7.82384C11.3661 7.83523 11.388 7.85706 11.3994 7.88454C11.4107 7.91202 11.4107 7.9429 11.3994 7.97038C11.388 7.99786 11.3661 8.01969 11.3387 8.03107C11.3112 8.04246 11.2803 8.04246 11.2528 8.03107C11.2253 8.01969 11.2035 7.99786 11.1921 7.97038C11.1807 7.9429 11.1807 7.91202 11.1921 7.88454C11.2035 7.85706 11.2253 7.83523 11.2528 7.82384C11.2803 7.81246 11.3112 7.81246 11.3387 7.82384Z" fill="#000088"/>
<path d="M12.6026 10.5806L11.3225 10.158L10.6836 10.0664L11.2827 10.3066L12.6026 10.5806Z" fill="#000088"/>
<path d="M11.8718 8.13157C11.8954 8.14968 11.9109 8.17642 11.9148 8.20591C11.9186 8.2354 11.9106 8.26523 11.8925 8.28882C11.8744 8.31242 11.8477 8.32786 11.8182 8.33174C11.7887 8.33563 11.7589 8.32763 11.7353 8.30953C11.7117 8.29142 11.6962 8.26468 11.6924 8.23519C11.6885 8.2057 11.6965 8.17588 11.7146 8.15228C11.7327 8.12868 11.7594 8.11324 11.7889 8.10936C11.8184 8.10548 11.8482 8.11347 11.8718 8.13157Z" fill="#000088"/>
<path d="M12.3768 11.1213L11.2497 10.3818L10.6562 10.1279L11.1728 10.515L12.3768 11.1213Z" fill="#000088"/>
<path d="M12.3066 8.56634C12.3247 8.58994 12.3327 8.61976 12.3288 8.64925C12.3249 8.67874 12.3095 8.70548 12.2859 8.72359C12.2623 8.7417 12.2325 8.74969 12.203 8.74581C12.1735 8.74192 12.1468 8.72648 12.1286 8.70289C12.1105 8.67929 12.1025 8.64946 12.1064 8.61997C12.1103 8.59048 12.1257 8.56374 12.1493 8.54564C12.1729 8.52753 12.2028 8.51954 12.2323 8.52342C12.2617 8.5273 12.2885 8.54274 12.3066 8.56634Z" fill="#000088"/>
<path d="M12.0259 11.5855L11.1286 10.5794L10.6211 10.1807L11.0199 10.6882L12.0259 11.5855Z" fill="#000088"/>
<path d="M12.6142 9.09853C12.6256 9.12601 12.6256 9.15689 12.6142 9.18437C12.6028 9.21185 12.581 9.23368 12.5535 9.24506C12.526 9.25645 12.4952 9.25645 12.4677 9.24506C12.4402 9.23368 12.4184 9.21185 12.407 9.18437C12.3956 9.15689 12.3956 9.12601 12.407 9.09853C12.4184 9.07105 12.4402 9.04922 12.4677 9.03783C12.4952 9.02645 12.526 9.02645 12.5535 9.03783C12.581 9.04922 12.6028 9.07105 12.6142 9.09853Z" fill="#000088"/>
<path d="M11.5598 11.9422L10.9534 10.7382L10.5664 10.2217L10.8202 10.8151L11.5598 11.9422Z" fill="#000088"/>
<path d="M12.7702 9.69224C12.7721 9.70684 12.7712 9.72168 12.7674 9.73591C12.7635 9.75013 12.757 9.76347 12.748 9.77515C12.739 9.78684 12.7279 9.79664 12.7151 9.80401C12.7023 9.81137 12.6883 9.81615 12.6737 9.81807C12.6591 9.81999 12.6442 9.81902 12.63 9.81521C12.6158 9.8114 12.6024 9.80482 12.5908 9.79586C12.5791 9.78689 12.5693 9.77571 12.5619 9.76296C12.5545 9.7502 12.5498 9.73612 12.5478 9.72152C12.5459 9.70692 12.5469 9.69208 12.5507 9.67785C12.5545 9.66363 12.5611 9.65029 12.5701 9.63861C12.579 9.62692 12.5902 9.61712 12.603 9.60975C12.6157 9.60239 12.6298 9.59761 12.6444 9.59569C12.659 9.59376 12.6738 9.59474 12.6881 9.59855C12.7023 9.60236 12.7156 9.60894 12.7273 9.6179C12.739 9.62687 12.7488 9.63805 12.7562 9.6508C12.7635 9.66356 12.7683 9.67764 12.7702 9.69224Z" fill="#000088"/>
<path d="M11.0142 12.1661L10.7402 10.8462L10.5 10.2471L10.5916 10.886L11.0142 12.1661Z" fill="#000088"/>
</g>
<defs>
<clipPath id="clip0_418_189">
<rect width="18.75" height="18.75" fill="white" transform="translate(14.1875 0.625)"/>
</clipPath>
<clipPath id="clip1_418_189">
<rect width="18.75" height="18.75" fill="white" transform="translate(1.0625 0.625)"/>
</clipPath>
</defs>
</svg>
