<svg width="25" height="24" viewBox="0 0 25 24" fill="none" xmlns="http://www.w3.org/2000/svg">
<path d="M17.7964 5.46061C17.5528 5.46061 17.3147 5.53099 17.1122 5.66285C16.9097 5.7947 16.7518 5.98212 16.6586 6.20139C16.5654 6.42066 16.541 6.66194 16.5885 6.89472C16.636 7.1275 16.7533 7.34132 16.9256 7.50914C17.0978 7.67696 17.3172 7.79125 17.5562 7.83755C17.7951 7.88385 18.0427 7.86009 18.2677 7.76927C18.4928 7.67844 18.6851 7.52463 18.8204 7.32729C18.9558 7.12996 19.028 6.89795 19.028 6.66061C19.028 6.34235 18.8982 6.03713 18.6673 5.81208C18.4363 5.58704 18.1231 5.46061 17.7964 5.46061V5.46061ZM22.5175 7.88061C22.4975 7.05091 22.338 6.23001 22.0454 5.45061C21.7844 4.78374 21.3782 4.17989 20.8548 3.68061C20.3466 3.16804 19.7254 2.77479 19.0383 2.53061C18.2405 2.23677 17.397 2.07782 16.5443 2.06061C15.4564 2.00061 15.1075 2.00061 12.3159 2.00061C9.52431 2.00061 9.17537 2.00061 8.08747 2.06061C7.23476 2.07782 6.39132 2.23677 5.59352 2.53061C4.90761 2.77726 4.28696 3.17017 3.77695 3.68061C3.25088 4.17579 2.84728 4.78105 2.59668 5.45061C2.29511 6.22795 2.13198 7.04976 2.11431 7.88061C2.05273 8.94061 2.05273 9.28061 2.05273 12.0006C2.05273 14.7206 2.05273 15.0606 2.11431 16.1206C2.13198 16.9515 2.29511 17.7733 2.59668 18.5506C2.84728 19.2202 3.25088 19.8254 3.77695 20.3206C4.28696 20.831 4.90761 21.224 5.59352 21.4706C6.39132 21.7644 7.23476 21.9234 8.08747 21.9406C9.17537 22.0006 9.52431 22.0006 12.3159 22.0006C15.1075 22.0006 15.4564 22.0006 16.5443 21.9406C17.397 21.9234 18.2405 21.7644 19.0383 21.4706C19.7254 21.2264 20.3466 20.8332 20.8548 20.3206C21.3806 19.8232 21.7871 19.2188 22.0454 18.5506C22.338 17.7712 22.4975 16.9503 22.5175 16.1206C22.5175 15.0606 22.5791 14.7206 22.5791 12.0006C22.5791 9.28061 22.5791 8.94061 22.5175 7.88061V7.88061ZM20.6701 16.0006C20.6626 16.6354 20.5446 17.2643 20.3212 17.8606C20.1573 18.2958 19.8941 18.689 19.5514 19.0106C19.2185 19.3411 18.8158 19.597 18.3712 19.7606C17.7592 19.9784 17.1137 20.0933 16.4622 20.1006C15.4359 20.1506 15.0562 20.1606 12.3569 20.1606C9.65773 20.1606 9.278 20.1606 8.25168 20.1006C7.57523 20.113 6.90166 20.0115 6.26063 19.8006C5.83551 19.6287 5.45123 19.3734 5.13168 19.0506C4.79104 18.7294 4.53113 18.3358 4.37221 17.9006C4.12164 17.2958 3.98266 16.6526 3.96168 16.0006C3.96168 15.0006 3.9001 14.6306 3.9001 12.0006C3.9001 9.37061 3.9001 9.00061 3.96168 8.00061C3.96628 7.35167 4.08787 6.70856 4.32089 6.10061C4.50157 5.67852 4.7789 5.30227 5.13168 5.00061C5.44349 4.65678 5.82885 4.38371 6.26063 4.20061C6.88622 3.98065 7.54557 3.86569 8.21063 3.86061C9.23695 3.86061 9.61668 3.80061 12.3159 3.80061C15.0151 3.80061 15.3948 3.80061 16.4212 3.86061C17.0726 3.86789 17.7181 3.98286 18.3301 4.20061C18.7965 4.36926 19.2151 4.64346 19.5514 5.00061C19.8877 5.30779 20.1505 5.68334 20.3212 6.10061C20.5493 6.70954 20.6673 7.35239 20.6701 8.00061C20.7214 9.00061 20.7317 9.37061 20.7317 12.0006C20.7317 14.6306 20.7214 15.0006 20.6701 16.0006ZM12.3159 6.87061C11.275 6.87259 10.2581 7.17514 9.39362 7.74003C8.52914 8.30492 7.85591 9.10681 7.45899 10.0444C7.06207 10.9819 6.95927 12.0131 7.16358 13.0075C7.36788 14.002 7.87013 14.9151 8.60687 15.6316C9.3436 16.348 10.2817 16.8356 11.3028 17.0328C12.3238 17.2299 13.3819 17.1277 14.3433 16.7391C15.3048 16.3506 16.1265 15.693 16.7046 14.8496C17.2826 14.0062 17.5912 13.0148 17.5912 12.0006C17.5925 11.3257 17.4569 10.6572 17.1922 10.0336C16.9274 9.40992 16.5387 8.84342 16.0485 8.36666C15.5582 7.8899 14.9761 7.51229 14.3355 7.25554C13.6949 6.99879 13.0085 6.86797 12.3159 6.87061V6.87061ZM12.3159 15.3306C11.6399 15.3306 10.9792 15.1353 10.4172 14.7694C9.85513 14.4035 9.41708 13.8834 9.15841 13.2749C8.89974 12.6665 8.83206 11.9969 8.96393 11.351C9.0958 10.705 9.4213 10.1117 9.89926 9.64594C10.3772 9.18024 10.9862 8.86308 11.6491 8.7346C12.3121 8.60611 12.9993 8.67205 13.6238 8.92409C14.2483 9.17613 14.782 9.60295 15.1575 10.1506C15.5331 10.6982 15.7335 11.342 15.7335 12.0006C15.7335 12.4379 15.6451 12.8709 15.4734 13.2749C15.3016 13.679 15.0499 14.0461 14.7325 14.3553C14.4152 14.6645 14.0384 14.9098 13.6238 15.0771C13.2091 15.2445 12.7647 15.3306 12.3159 15.3306V15.3306Z" fill="#E1FC68"/>
</svg>
