<svg width="16" height="16" viewBox="0 0 16 16" fill="none" xmlns="http://www.w3.org/2000/svg">
<path d="M13.0868 2.43333C13.0093 2.37068 12.9188 2.32618 12.8219 2.30311C12.725 2.28003 12.6241 2.27897 12.5268 2.3C11.8144 2.44929 11.079 2.45119 10.3658 2.30559C9.6527 2.15998 8.97691 1.86994 8.38008 1.45333C8.26849 1.37591 8.13591 1.33443 8.00008 1.33443C7.86426 1.33443 7.73168 1.37591 7.62009 1.45333C7.02326 1.86994 6.34747 2.15998 5.63433 2.30559C4.92119 2.45119 4.18579 2.44929 3.47342 2.3C3.37604 2.27897 3.2752 2.28003 3.17829 2.30311C3.08138 2.32618 2.99087 2.37068 2.91342 2.43333C2.83607 2.49608 2.77377 2.57535 2.73108 2.66534C2.68839 2.75533 2.66641 2.85373 2.66675 2.95333V7.92C2.66616 8.87583 2.89393 9.81797 3.33111 10.668C3.76828 11.518 4.4022 12.2512 5.18008 12.8067L7.61342 14.54C7.72633 14.6204 7.86148 14.6636 8.00008 14.6636C8.13869 14.6636 8.27384 14.6204 8.38675 14.54L10.8201 12.8067C11.598 12.2512 12.2319 11.518 12.6691 10.668C13.1062 9.81797 13.334 8.87583 13.3334 7.92V2.95333C13.3338 2.85373 13.3118 2.75533 13.2691 2.66534C13.2264 2.57535 13.1641 2.49608 13.0868 2.43333ZM12.0001 7.92C12.0006 8.66317 11.8236 9.39572 11.4839 10.0567C11.1441 10.7176 10.6514 11.2879 10.0468 11.72L8.00008 13.18L5.95342 11.72C5.34878 11.2879 4.85607 10.7176 4.51632 10.0567C4.17656 9.39572 3.99957 8.66317 4.00009 7.92V3.72C5.3977 3.83962 6.79745 3.51535 8.00008 2.79333C9.20272 3.51535 10.6025 3.83962 12.0001 3.72V7.92ZM9.02675 6.39333L7.23342 8.19333L6.64008 7.59333C6.51455 7.46779 6.34429 7.39727 6.16675 7.39727C5.98922 7.39727 5.81895 7.46779 5.69342 7.59333C5.56788 7.71887 5.49736 7.88913 5.49736 8.06666C5.49736 8.2442 5.56788 8.41446 5.69342 8.54L6.76009 9.60666C6.82206 9.66915 6.89579 9.71875 6.97703 9.75259C7.05827 9.78644 7.14541 9.80386 7.23342 9.80386C7.32143 9.80386 7.40856 9.78644 7.4898 9.75259C7.57104 9.71875 7.64478 9.66915 7.70675 9.60666L10.0001 7.33333C10.1256 7.2078 10.1961 7.03753 10.1961 6.86C10.1961 6.68246 10.1256 6.5122 10.0001 6.38666C9.87455 6.26113 9.70429 6.1906 9.52675 6.1906C9.34922 6.1906 9.17895 6.26113 9.05342 6.38666L9.02675 6.39333Z" fill="#71717A"/>
</svg>
