<svg width="26" height="24" viewBox="0 0 26 24" fill="none" xmlns="http://www.w3.org/2000/svg">
<path d="M23.4822 2.42815C23.19 2.19128 22.8374 2.03604 22.4618 1.97895C22.0862 1.92186 21.7018 1.96505 21.3494 2.10394L2.95693 9.33929C2.56359 9.49697 2.22877 9.76748 1.99691 10.1149C1.76505 10.4623 1.64711 10.8702 1.65874 11.2845C1.67038 11.6988 1.81104 12.0998 2.06206 12.4344C2.31308 12.7689 2.66258 13.0212 3.06418 13.1576L6.78457 14.4184L8.85824 21.1C8.88642 21.1893 8.92732 21.2742 8.97974 21.3524C8.98769 21.3644 8.99891 21.3733 9.00736 21.385C9.06792 21.4673 9.14111 21.5401 9.22436 21.6008C9.24804 21.6183 9.27071 21.6348 9.29602 21.6504C9.39345 21.7134 9.50135 21.7595 9.61492 21.7866L9.62707 21.7876L9.63396 21.7904C9.70225 21.804 9.77175 21.8108 9.84143 21.8109C9.84813 21.8109 9.85409 21.8078 9.86073 21.8077C9.96588 21.8059 10.0701 21.7883 10.1697 21.7554C10.1929 21.7477 10.2128 21.7348 10.2353 21.7255C10.3095 21.6956 10.3799 21.6571 10.4449 21.611C10.497 21.5682 10.5491 21.5255 10.6012 21.4828L13.3744 18.4994L17.5108 21.6215C17.8749 21.8977 18.3231 22.0479 18.7846 22.0482C19.2682 22.0476 19.7369 21.8851 20.1121 21.5878C20.4872 21.2905 20.7461 20.8766 20.8453 20.4154L24.1938 4.39886C24.2697 4.03837 24.2436 3.66457 24.1183 3.31744C23.9929 2.97032 23.7731 2.66292 23.4822 2.42815V2.42815ZM10.2484 14.7367C10.1061 14.8749 10.0088 15.0508 9.96876 15.2426L9.6511 16.7466L8.84641 14.1535L13.0186 12.0366L10.2484 14.7367ZM18.7686 20.0404L13.8806 16.351C13.6761 16.197 13.4195 16.1238 13.1621 16.1458C12.9047 16.1679 12.6652 16.2837 12.4914 16.4701L11.6033 17.4253L11.9171 15.9389L19.1865 8.85586C19.3601 8.68702 19.4658 8.46321 19.4845 8.22498C19.5033 7.98675 19.4339 7.74984 19.2889 7.55717C19.1438 7.36451 18.9328 7.22882 18.6939 7.17469C18.4551 7.12056 18.2042 7.15157 17.9868 7.26211L7.55405 12.5547L3.73168 11.1918L22.1833 3.99942L18.7686 20.0404Z" fill="#E1FC68"/>
</svg>
