<svg width="25" height="24" viewBox="0 0 25 24" fill="none" xmlns="http://www.w3.org/2000/svg">
<path d="M23.6235 3.95069C23.6236 3.77406 23.5769 3.60055 23.4882 3.44784C23.3994 3.29512 23.2718 3.16866 23.1182 3.08133C22.9647 2.99399 22.7908 2.9489 22.6141 2.95066C22.4375 2.95241 22.2645 3.00095 22.1128 3.09131C21.5274 3.4397 20.8973 3.7065 20.2398 3.88431C19.3007 3.07855 18.1031 2.63762 16.8658 2.64212C15.5083 2.64369 14.2046 3.17272 13.23 4.11751C12.2553 5.06229 11.6859 6.34888 11.6421 7.7056C8.9661 7.27887 6.54076 5.88213 4.82857 3.78174C4.72541 3.65658 4.59366 3.55806 4.44443 3.49449C4.29521 3.43092 4.13288 3.40417 3.97115 3.41649C3.80951 3.4298 3.65355 3.48229 3.51675 3.5694C3.37994 3.65652 3.26642 3.77565 3.18599 3.91649C2.77352 4.63631 2.53662 5.44325 2.49454 6.2718C2.45246 7.10035 2.60638 7.92715 2.9438 8.68504L2.94185 8.68699C2.7902 8.7804 2.66504 8.91115 2.57836 9.06674C2.49167 9.22233 2.44635 9.39756 2.44673 9.57567C2.4449 9.7226 2.45371 9.86947 2.4731 10.0151C2.57524 11.2734 3.13289 12.4512 4.04146 13.3276C3.97983 13.445 3.94221 13.5736 3.93081 13.7057C3.9194 13.8378 3.93445 13.9709 3.97505 14.0972C4.37117 15.3313 5.21355 16.3732 6.33736 17.019C5.1956 17.4605 3.96278 17.6145 2.74751 17.4673C2.52259 17.439 2.29474 17.4881 2.10136 17.6064C1.90798 17.7247 1.76054 17.9052 1.68323 18.1183C1.60592 18.3314 1.60332 18.5644 1.67587 18.7792C1.74842 18.994 1.89181 19.1777 2.08251 19.3003C4.17261 20.6464 6.60619 21.3621 9.09228 21.3618C11.9115 21.3935 14.6622 20.4926 16.9165 18.7993C19.1708 17.1059 20.8022 14.715 21.5571 11.9985C21.9102 10.8151 22.0904 9.58696 22.0923 8.35205C22.0923 8.28662 22.0923 8.21924 22.0913 8.15186C22.6134 7.58879 23.0179 6.92717 23.281 6.20576C23.5441 5.48436 23.6605 4.71769 23.6235 3.95069V3.95069ZM20.3169 7.1626C20.1517 7.35795 20.0681 7.6094 20.0835 7.86475C20.0932 8.02975 20.0922 8.19575 20.0922 8.35205C20.0902 9.39559 19.9372 10.4334 19.6381 11.4331C19.0216 13.7445 17.6473 15.7821 15.7352 17.2197C13.8232 18.6573 11.484 19.4116 9.09228 19.3618C8.23316 19.3621 7.377 19.2611 6.5415 19.061C7.60691 18.7177 8.60309 18.1884 9.48388 17.4976C9.64611 17.3698 9.76483 17.195 9.82377 16.9971C9.88271 16.7993 9.87896 16.588 9.81306 16.3923C9.74715 16.1966 9.62231 16.0262 9.45566 15.9042C9.28902 15.7823 9.08873 15.715 8.88228 15.7114C8.05111 15.6985 7.25741 15.3635 6.66841 14.7769C6.81783 14.7485 6.96627 14.7134 7.11373 14.6714C7.32974 14.6099 7.51878 14.4775 7.65039 14.2955C7.78201 14.1135 7.84855 13.8926 7.83931 13.6682C7.83006 13.4438 7.74556 13.229 7.59942 13.0585C7.45327 12.8879 7.25399 12.7715 7.03365 12.728C6.55119 12.6328 6.0972 12.4275 5.70697 12.1282C5.31674 11.8289 5.00078 11.4437 4.78365 11.0024C4.96438 11.0271 5.14626 11.0424 5.32857 11.0483C5.54516 11.0516 5.75717 10.9859 5.93395 10.8607C6.11073 10.7356 6.24312 10.5574 6.31197 10.3521C6.37795 10.1448 6.37456 9.92172 6.3023 9.71659C6.23005 9.51145 6.09288 9.33547 5.91158 9.21533C5.47173 8.92231 5.11143 8.52476 4.86294 8.05829C4.61445 7.59183 4.48554 7.07101 4.48775 6.54249C4.48775 6.47609 4.4897 6.40968 4.49361 6.34425C6.73487 8.43451 9.64193 9.6667 12.7026 9.82374C12.8571 9.82983 13.011 9.80073 13.1526 9.73864C13.2942 9.67656 13.4198 9.5831 13.52 9.46534C13.6192 9.34645 13.6894 9.20615 13.7252 9.0555C13.7609 8.90485 13.7612 8.74796 13.726 8.59718C13.6688 8.35855 13.6396 8.11406 13.6391 7.86866C13.64 7.0132 13.9802 6.19303 14.5851 5.58813C15.1901 4.98323 16.0102 4.643 16.8657 4.64209C17.3058 4.64092 17.7414 4.73099 18.145 4.90664C18.5486 5.08229 18.9113 5.33969 19.2104 5.6626C19.3257 5.78669 19.4709 5.8792 19.6321 5.93134C19.7933 5.98348 19.9651 5.99352 20.1313 5.96049C20.5421 5.88055 20.947 5.77288 21.3432 5.63823C21.0729 6.19121 20.7275 6.70418 20.3169 7.1626V7.1626Z" fill="#E1FC68"/>
</svg>
