<svg width="16" height="16" viewBox="0 0 16 16" fill="none" xmlns="http://www.w3.org/2000/svg">
<path d="M8.19862 8.14704C8.55434 7.83912 8.83965 7.45829 9.0352 7.03038C9.23075 6.60248 9.33195 6.13751 9.33195 5.66704C9.33195 4.78298 8.98076 3.93513 8.35564 3.31001C7.73052 2.68489 6.88267 2.3337 5.99862 2.3337C5.11456 2.3337 4.26672 2.68489 3.64159 3.31001C3.01647 3.93513 2.66528 4.78298 2.66528 5.66704C2.66528 6.13751 2.76648 6.60248 2.96203 7.03038C3.15758 7.45829 3.4429 7.83912 3.79862 8.14704C2.86538 8.56963 2.07359 9.25206 1.51794 10.1127C0.96228 10.9734 0.666264 11.9759 0.665283 13.0004C0.665283 13.1772 0.735521 13.3468 0.860545 13.4718C0.98557 13.5968 1.15514 13.667 1.33195 13.667C1.50876 13.667 1.67833 13.5968 1.80335 13.4718C1.92838 13.3468 1.99862 13.1772 1.99862 13.0004C1.99862 11.9395 2.42004 10.9221 3.17019 10.1719C3.92034 9.4218 4.93775 9.00037 5.99862 9.00037C7.05948 9.00037 8.0769 9.4218 8.82704 10.1719C9.57719 10.9221 9.99862 11.9395 9.99862 13.0004C9.99862 13.1772 10.0689 13.3468 10.1939 13.4718C10.3189 13.5968 10.4885 13.667 10.6653 13.667C10.8421 13.667 11.0117 13.5968 11.1367 13.4718C11.2617 13.3468 11.332 13.1772 11.332 13.0004C11.331 11.9759 11.035 10.9734 10.4793 10.1127C9.92364 9.25206 9.13186 8.56963 8.19862 8.14704ZM5.99862 7.66704C5.60305 7.66704 5.21637 7.54974 4.88748 7.32997C4.55858 7.11021 4.30223 6.79785 4.15086 6.4324C3.99948 6.06695 3.95988 5.66482 4.03705 5.27685C4.11422 4.88889 4.3047 4.53253 4.5844 4.25282C4.86411 3.97312 5.22047 3.78264 5.60844 3.70547C5.9964 3.62829 6.39853 3.6679 6.76398 3.81928C7.12944 3.97065 7.44179 4.227 7.66156 4.5559C7.88132 4.88479 7.99862 5.27147 7.99862 5.66704C7.99862 6.19747 7.7879 6.70618 7.41283 7.08125C7.03776 7.45632 6.52905 7.66704 5.99862 7.66704ZM12.492 7.88037C12.9186 7.39992 13.1973 6.80641 13.2945 6.17126C13.3917 5.53612 13.3032 4.88642 13.0398 4.30037C12.7764 3.71432 12.3491 3.2169 11.8096 2.86798C11.27 2.51907 10.6412 2.33353 9.99862 2.3337C9.82181 2.3337 9.65224 2.40394 9.52721 2.52896C9.40219 2.65399 9.33195 2.82356 9.33195 3.00037C9.33195 3.17718 9.40219 3.34675 9.52721 3.47177C9.65224 3.5968 9.82181 3.66704 9.99862 3.66704C10.529 3.66704 11.0378 3.87775 11.4128 4.25282C11.7879 4.62789 11.9986 5.1366 11.9986 5.66704C11.9977 6.0172 11.9048 6.36097 11.7293 6.66398C11.5538 6.967 11.3019 7.21862 10.9986 7.3937C10.8998 7.45072 10.8172 7.53215 10.7589 7.6302C10.7005 7.72825 10.6683 7.83964 10.6653 7.9537C10.6625 8.06688 10.6886 8.1789 10.7411 8.27921C10.7935 8.37952 10.8707 8.4648 10.9653 8.52704L11.2253 8.70037L11.3119 8.74704C12.1155 9.12818 12.7935 9.73103 13.2659 10.4846C13.7384 11.2381 13.9856 12.111 13.9786 13.0004C13.9786 13.1772 14.0489 13.3468 14.1739 13.4718C14.2989 13.5968 14.4685 13.667 14.6453 13.667C14.8221 13.667 14.9917 13.5968 15.1167 13.4718C15.2417 13.3468 15.3119 13.1772 15.3119 13.0004C15.3174 11.9773 15.0612 10.9699 14.5676 10.0737C14.074 9.17762 13.3595 8.42258 12.492 7.88037Z" fill="#71717A"/>
</svg>
